<svg width="366" height="143" viewBox="0 0 366 143" fill="none" xmlns="http://www.w3.org/2000/svg">
<path d="M238.112 0H320.191C321.517 0 322.591 1.07461 322.591 2.40015C322.591 3.7257 321.517 4.80031 320.191 4.80031H238.112C236.786 4.80031 235.712 3.7257 235.712 2.40015C235.712 1.07461 236.786 0 238.112 0Z" fill="#183658"/>
<path d="M129.525 0H146.271C147.597 0 148.671 1.07461 148.671 2.40015C148.671 3.7257 147.597 4.80031 146.271 4.80031H129.525C128.683 4.80031 128 4.11747 128 3.27518V1.52512C128 0.68283 128.683 0 129.525 0Z" fill="#183658"/>
<path d="M291.3 112.293H237.32C237.32 112.293 229.598 94.6969 230.456 93.8326C231.314 92.9684 248.261 85.2445 248.261 85.2445C248.261 85.2445 261.911 83.9571 264.31 83.9571C266.709 83.9571 278.383 81.6097 280.374 82.7873C282.364 83.9649 291.164 84.1717 293.524 87.7118C295.884 91.252 298.458 103.052 298.458 103.803C298.458 104.554 291.3 112.293 291.3 112.293Z" fill="#183658"/>
<path d="M128 2.40015H341.884C345.624 2.40015 348.655 5.43205 348.655 9.17214V112.293H291.3C291.3 97.3842 279.216 85.2984 264.31 85.2984C249.404 85.2984 237.32 97.3842 237.32 112.293H128L128 2.40015Z" fill="#02CCC0"/>
<path d="M128 14.6569H305.072C306.04 14.6569 306.824 15.4416 306.824 16.4097V59.8912C306.824 60.8592 306.04 61.644 305.072 61.644H128V14.6569Z" fill="#183658"/>
<path d="M346.877 86.9498L348.655 87.7119V14.6562H343.4C336.35 14.6562 330.636 18.3306 330.636 22.8632V67.437C330.636 75.2778 336.73 82.6001 346.877 86.9498Z" fill="#183658"/>
<path d="M225.677 57.3464H257.7C259.425 57.3464 260.823 55.9479 260.823 54.2228V22.1947C260.823 20.4695 259.425 19.0709 257.7 19.0709H225.677C223.953 19.0709 222.554 20.4695 222.554 22.1947V54.2227C222.554 55.9479 223.953 57.3464 225.677 57.3464Z" fill="#3A5D73"/>
<path d="M351.873 105.091V94.6851C352.88 94.6851 353.696 95.5016 353.696 96.5086V103.267C353.696 104.274 352.88 105.091 351.873 105.091Z" fill="white"/>
<path opacity="0.5" d="M248.236 19.0709L232.977 57.3464H241.343L256.949 19.0709H248.236Z" fill="white"/>
<path d="M267.547 57.3464H299.57C301.295 57.3464 302.693 55.9479 302.693 54.2228V22.1947C302.693 20.4695 301.295 19.0709 299.57 19.0709H267.547C265.822 19.0709 264.424 20.4695 264.424 22.1947V54.2227C264.424 55.9479 265.822 57.3464 267.547 57.3464Z" fill="#3A5D73"/>
<path opacity="0.5" d="M290.106 19.0709L274.846 57.3464H283.212L298.818 19.0709H290.106Z" fill="white"/>
<path d="M183.525 57.3464H215.548C217.272 57.3464 218.671 55.9479 218.671 54.2228V22.1947C218.671 20.4695 217.272 19.0709 215.548 19.0709H183.525C181.8 19.0709 180.402 20.4695 180.402 22.1947V54.2227C180.402 55.9479 181.8 57.3464 183.525 57.3464Z" fill="#3A5D73"/>
<path opacity="0.5" d="M199.536 19.0709L214.796 57.3464H206.43L190.824 19.0709H199.536Z" fill="white"/>
<path d="M141.372 57.3464H173.395C175.12 57.3464 176.518 55.9479 176.518 54.2228V22.1947C176.518 20.4695 175.12 19.0709 173.395 19.0709H141.372C139.647 19.0709 138.249 20.4695 138.249 22.1947V54.2227C138.249 55.9479 139.647 57.3464 141.372 57.3464Z" fill="#3A5D73"/>
<path opacity="0.5" d="M157.383 19.0709L172.644 57.3464H164.277L148.671 19.0709H157.383Z" fill="white"/>
<path d="M342.434 65.935C337.577 65.935 333.639 61.9965 333.639 57.1382V23.9359C333.639 20.1587 338.401 17.0967 344.276 17.0967H348.655V65.9348H342.434V65.935Z" fill="#3A5D73"/>
<path opacity="0.5" d="M334.18 46.5559V61.456L348.655 20.7825C347.77 19.0659 345.856 17.6519 343.383 16.8411L334.18 46.5559Z" fill="white"/>
<path d="M362.617 48.0192H365.153C365.445 48.0192 365.681 47.7828 365.681 47.4912V24.1955C365.681 23.9039 365.445 23.6675 365.153 23.6675H362.617C362.325 23.6675 362.089 23.9039 362.089 24.1955V47.4912C362.089 47.7828 362.325 48.0192 362.617 48.0192Z" fill="#183658"/>
<path d="M364.233 23.6674H331.601V31.2847L364.233 27.4761V23.6674Z" fill="#183658"/>
<path d="M128 19.0709H132.02C133.315 19.0709 134.365 20.1212 134.365 21.417V55.0004C134.365 56.2961 133.315 57.3464 132.02 57.3464H128V19.0709Z" fill="#3A5D73"/>
<path opacity="0.5" d="M128 51.0994L130.491 57.3467H128V51.0994Z" fill="white"/>
<path opacity="0.3" d="M128 94.9136H327.235C339.065 94.9136 348.655 85.3217 348.655 73.4895V107.979C348.655 110.361 346.724 112.293 344.342 112.293H128V94.9136Z" fill="#E03268"/>
<path d="M249.155 127.454C240.784 119.081 240.784 105.505 249.155 97.1324C257.527 88.7592 271.1 88.7592 279.472 97.1323C287.844 105.505 287.844 119.081 279.472 127.454C271.1 135.827 257.527 135.827 249.155 127.454Z" fill="#1A1A1A"/>
<path d="M249.721 115.444C247.992 107.389 253.119 99.4567 261.173 97.7274C269.227 95.998 277.158 101.126 278.887 109.181C280.616 117.236 275.489 125.168 267.435 126.898C259.381 128.627 251.45 123.499 249.721 115.444Z" fill="#9E9DA2"/>
<path opacity="0.5" d="M255.992 99.9088C254.559 102.2 253.727 104.907 253.727 107.809C253.727 116.048 260.405 122.727 268.643 122.727C271.723 122.727 274.584 121.793 276.961 120.193C274.325 124.407 269.646 127.211 264.31 127.211C256.073 127.211 249.395 120.532 249.395 112.293C249.395 107.134 252.013 102.588 255.992 99.9088Z" fill="#9E9DA2"/>
<path d="M257.26 119.348C253.365 115.452 253.365 109.135 257.26 105.239C261.156 101.343 267.472 101.343 271.367 105.239C275.263 109.135 275.263 115.452 271.367 119.348C267.472 123.244 261.156 123.244 257.26 119.348Z" fill="#D8D9DD"/>
<path opacity="0.3" d="M258.801 103.977C257.753 105.556 257.141 107.449 257.141 109.487C257.141 114.996 261.607 119.463 267.116 119.463C269.153 119.463 271.047 118.851 272.625 117.803C270.839 120.495 267.782 122.27 264.31 122.27C258.801 122.27 254.335 117.803 254.335 112.293C254.335 108.82 256.11 105.763 258.801 103.977Z" fill="#D8D9DD"/>
<path d="M348.42 90.8519H326.044C324.137 90.8519 322.591 92.3982 322.591 94.3053V110.327C322.591 112.234 324.137 113.78 326.044 113.78H348.42C350.327 113.78 351.873 112.234 351.873 110.327V94.3053C351.873 92.3982 350.327 90.8519 348.42 90.8519Z" fill="#183658"/>
<path d="M114.999 1H33.3349C32.0161 1 30.9471 2.06707 30.9471 3.38332C30.9471 4.69957 32.0161 5.76665 33.3349 5.76665H114.999C116.317 5.76665 117.386 4.69957 117.386 3.38332C117.386 2.06707 116.317 1 114.999 1Z" fill="#183658"/>
<path d="M62.0797 112.505H115.786C115.786 112.505 123.469 95.0329 122.615 94.1747C121.761 93.3165 104.901 85.6468 104.901 85.6468C104.901 85.6468 91.3198 84.3685 88.9328 84.3685C86.5459 84.3685 74.9312 82.0376 72.9508 83.2069C70.9704 84.3762 62.2147 84.5816 59.8671 88.0969C57.5193 91.6122 54.9581 103.33 54.9581 104.076C54.9581 104.821 62.0797 112.505 62.0797 112.505Z" fill="#183658"/>
<path d="M217.889 2.98596H11.508C7.89974 2.98596 4.97467 5.99955 4.97467 9.71705V112.215H60.3178C60.3178 97.3962 71.9777 85.3835 86.3609 85.3835C100.744 85.3835 112.404 97.3962 112.404 112.215H217.889L217.889 2.98596Z" fill="#02CCC0"/>
<path d="M219.889 14.8948H50.4388C49.5125 14.8948 48.7617 15.6742 48.7617 16.6358V59.8242C48.7617 60.7858 49.5125 61.5652 50.4388 61.5652H219.889V14.8948Z" fill="#183658"/>
<path d="M6.78488 87.3401L5.01562 88.0969V15.5535H10.2442C17.2579 15.5535 22.9438 19.2021 22.9438 23.7029V67.9641C22.9436 75.7499 16.88 83.0209 6.78488 87.3401Z" fill="#183658"/>
<path d="M127.37 57.9444H95.5092C93.7931 57.9444 92.4019 56.5557 92.4019 54.8426V23.0391C92.4019 21.326 93.7931 19.9373 95.5092 19.9373H127.37C129.086 19.9373 130.477 21.326 130.477 23.0391V54.8425C130.477 56.5557 129.086 57.9444 127.37 57.9444Z" fill="#3A5D73"/>
<g opacity="0.3">
<path d="M163.761 112.865H117.953C116.003 112.865 114.416 111.281 114.416 109.333V75.6103C114.416 73.6628 116.003 72.0787 117.953 72.0787H163.761C165.712 72.0787 167.299 73.6628 167.299 75.6103V109.333C167.299 111.281 165.712 112.865 163.761 112.865ZM117.953 72.7975C116.4 72.7975 115.136 74.0594 115.136 75.6101V109.333C115.136 110.884 116.4 112.146 117.953 112.146H163.761C165.315 112.146 166.579 110.884 166.579 109.333V75.6101C166.579 74.0594 165.315 72.7975 163.761 72.7975H117.953Z" fill="#183658"/>
</g>
<g opacity="0.3">
<path d="M222.462 112.865H176.654C174.704 112.865 173.117 111.281 173.117 109.333V75.6103C173.117 73.6628 174.704 72.0787 176.654 72.0787H222.462C224.413 72.0787 226 73.6628 226 75.6103V109.333C226 111.281 224.413 112.865 222.462 112.865ZM176.654 72.7975C175.101 72.7975 173.837 74.0594 173.837 75.6101V109.333C173.837 110.884 175.101 112.146 176.654 112.146H222.462C224.016 112.146 225.28 110.884 225.28 109.333V75.6101C225.28 74.0594 224.016 72.7975 222.462 72.7975H176.654Z" fill="#183658"/>
</g>
<path d="M1.81417 105.354V95.0211C0.812282 95.0211 0 95.832 0 96.8319V103.543C0 104.543 0.812151 105.354 1.81417 105.354Z" fill="white"/>
<path opacity="0.5" d="M111.439 19.9373L96.2567 57.9444H104.581L120.108 19.9373H111.439Z" fill="white"/>
<path d="M85.7124 57.9444H53.8522C52.136 57.9444 50.7448 56.5557 50.7448 54.8426V23.0391C50.7448 21.326 52.136 19.9373 53.8522 19.9373H85.7124C87.4285 19.9373 88.8197 21.326 88.8197 23.0391V54.8425C88.8197 56.5557 87.4285 57.9444 85.7124 57.9444Z" fill="#3A5D73"/>
<path opacity="0.5" d="M69.7822 19.9373L54.5996 57.9444H62.9233L78.4503 19.9373H69.7822Z" fill="white"/>
<path d="M169.308 57.9444H137.448C135.732 57.9444 134.341 56.5557 134.341 54.8426V23.0391C134.341 21.326 135.732 19.9373 137.448 19.9373H169.308C171.024 19.9373 172.416 21.326 172.416 23.0391V54.8425C172.416 56.5557 171.025 57.9444 169.308 57.9444Z" fill="#3A5D73"/>
<path opacity="0.5" d="M153.378 19.9373L138.196 57.9444H146.519L162.046 19.9373H153.378Z" fill="white"/>
<path d="M211.247 57.9444H179.387C177.671 57.9444 176.28 56.5557 176.28 54.8426V23.0391C176.28 21.326 177.671 19.9373 179.387 19.9373H211.247C212.963 19.9373 214.355 21.326 214.355 23.0391V54.8425C214.355 56.5557 212.963 57.9444 211.247 57.9444Z" fill="#3A5D73"/>
<path opacity="0.5" d="M195.317 19.9373L180.135 57.9444H188.458L203.985 19.9373H195.317Z" fill="white"/>
<path d="M11.2051 66.4726C16.038 66.4726 19.9557 62.5618 19.9557 57.7376V24.768C19.9557 21.0173 15.2175 17.9768 9.37272 17.9768H5.01562V66.4725H11.2051V66.4726Z" fill="#3A5D73"/>
<path opacity="0.5" d="M5.01562 48.2224V63.018L19.4172 22.6297C18.5364 20.9252 16.6328 19.5211 14.1719 18.7159L5.01562 48.2224Z" fill="white"/>
<path opacity="0.3" d="M224.551 95.2482H26.3275C14.5571 95.2482 5.0155 85.7235 5.0155 73.9742V108.222C5.0155 110.588 6.93668 112.505 9.30667 112.505H224.551V95.2482Z" fill="#E03268"/>
<path d="M104.011 127.56C112.34 119.246 112.34 105.766 104.011 97.4513C95.6814 89.1369 82.1769 89.1369 73.8477 97.4513C65.5184 105.766 65.5184 119.246 73.8477 127.56C82.1769 135.875 95.6814 135.875 104.011 127.56Z" fill="#1A1A1A"/>
<path d="M103.448 115.634C105.168 107.636 100.067 99.7594 92.0537 98.0422C84.0407 96.3249 76.1503 101.417 74.4301 109.416C72.7098 117.414 77.811 125.291 85.824 127.008C93.837 128.725 101.727 123.633 103.448 115.634Z" fill="#9E9DA2"/>
<path opacity="0.5" d="M97.2083 100.208C98.6347 102.483 99.4619 105.171 99.4619 108.053C99.4619 116.234 92.8179 122.866 84.6221 122.866C81.5579 122.866 78.7107 121.939 76.3466 120.35C78.9693 124.534 83.624 127.319 88.9329 127.319C97.1286 127.319 103.773 120.687 103.773 112.505C103.772 107.383 101.168 102.868 97.2083 100.208Z" fill="#9E9DA2"/>
<path d="M95.9467 119.511C99.8225 115.642 99.8225 109.37 95.9467 105.501C92.071 101.632 85.7873 101.632 81.9116 105.501C78.0359 109.37 78.0359 115.642 81.9116 119.511C85.7873 123.38 92.071 123.38 95.9467 119.511Z" fill="#D8D9DD"/>
<path opacity="0.3" d="M94.414 104.247C95.4567 105.815 96.0656 107.696 96.0656 109.719C96.0656 115.19 91.6223 119.626 86.1412 119.626C84.1144 119.626 82.2305 119.018 80.6598 117.977C82.4372 120.65 85.4782 122.412 88.9327 122.412C94.4138 122.412 98.8571 117.977 98.8571 112.505C98.8571 109.057 97.0913 106.022 94.414 104.247Z" fill="#D8D9DD"/>
<path d="M5.24945 91.2148H27.512C29.4092 91.2148 30.9473 92.7502 30.9473 94.644V110.553C30.9473 112.447 29.4092 113.982 27.512 113.982H5.24945C3.35217 113.982 1.81415 112.447 1.81415 110.553V94.644C1.81415 92.7502 3.35217 91.2148 5.24945 91.2148Z" fill="#183658"/>
</svg>
